<svg width="1024" height="1024" viewBox="0 0 1024 1024" fill="none" xmlns="http://www.w3.org/2000/svg">
<g filter="url(#filter0_d_7_3)">
<rect x="100" y="100" width="824" height="824" rx="184" fill="white" style="fill:white;fill-opacity:1;"/>
<rect x="100" y="100" width="824" height="824" rx="184" fill="url(#paint0_linear_7_3)" style=""/>
</g>
<mask id="mask0_7_3" style="mask-type:alpha" maskUnits="userSpaceOnUse" x="100" y="100" width="824" height="824">
<rect x="100" y="100" width="824" height="824" rx="184" fill="white" style="fill:white;fill-opacity:1;"/>
<rect x="100" y="100" width="824" height="824" rx="184" fill="url(#paint1_linear_7_3)" style=""/>
</mask>
<g mask="url(#mask0_7_3)">
<mask id="mask1_7_3" style="mask-type:alpha" maskUnits="userSpaceOnUse" x="0" y="0" width="1024" height="1024">
<rect width="1024" height="1024" fill="black" style="fill:black;fill-opacity:1;"/>
</mask>
<g mask="url(#mask1_7_3)">
<rect width="1024" height="1024" fill="url(#paint2_linear_7_3)" style=""/>
</g>
<g filter="url(#filter1_d_7_3)">
<path d="M585.937 302.5C665.109 284.404 757.615 341.126 738.447 366.53L688.444 705.125C688.444 705.125 691.859 682 510.724 725.637C329.588 769.273 333.003 705.125 333.003 705.125L283 366.53C312.56 337.092 397.471 289.356 502.846 328.714C532.5 318.402 559.787 308.476 585.937 302.5Z" fill="url(#paint3_linear_7_3)" fill-opacity="0.9" style=""/>
<path d="M585.937 302.5C665.109 284.404 757.615 341.126 738.447 366.53C728.684 379.469 700 386.721 663.025 384.375C627.411 382.116 584.103 370.952 542.601 347.39C529.083 339.716 515.809 333.556 502.846 328.714C532.5 318.402 559.787 308.476 585.937 302.5Z" fill="url(#paint4_linear_7_3)" fill-opacity="0.9" style=""/>
</g>
</g>
<defs>
<filter id="filter0_d_7_3" x="78" y="89" width="868" height="868" filterUnits="userSpaceOnUse" color-interpolation-filters="sRGB">
<feFlood flood-opacity="0" result="BackgroundImageFix"/>
<feColorMatrix in="SourceAlpha" type="matrix" values="0 0 0 0 0 0 0 0 0 0 0 0 0 0 0 0 0 0 127 0" result="hardAlpha"/>
<feOffset dy="11"/>
<feGaussianBlur stdDeviation="11"/>
<feColorMatrix type="matrix" values="0 0 0 0 0 0 0 0 0 0 0 0 0 0 0 0 0 0 0.28 0"/>
<feBlend mode="normal" in2="BackgroundImageFix" result="effect1_dropShadow_7_3"/>
<feBlend mode="normal" in="SourceGraphic" in2="effect1_dropShadow_7_3" result="shape"/>
</filter>
<filter id="filter1_d_7_3" x="233" y="269" width="558" height="541.844" filterUnits="userSpaceOnUse" color-interpolation-filters="sRGB">
<feFlood flood-opacity="0" result="BackgroundImageFix"/>
<feColorMatrix in="SourceAlpha" type="matrix" values="0 0 0 0 0 0 0 0 0 0 0 0 0 0 0 0 0 0 127 0" result="hardAlpha"/>
<feOffset dy="20"/>
<feGaussianBlur stdDeviation="25"/>
<feComposite in2="hardAlpha" operator="out"/>
<feColorMatrix type="matrix" values="0 0 0 0 0 0 0 0 0 0 0 0 0 0 0 0 0 0 0.5 0"/>
<feBlend mode="normal" in2="BackgroundImageFix" result="effect1_dropShadow_7_3"/>
<feBlend mode="normal" in="SourceGraphic" in2="effect1_dropShadow_7_3" result="shape"/>
</filter>
<linearGradient id="paint0_linear_7_3" x1="512" y1="100" x2="512" y2="924" gradientUnits="userSpaceOnUse">
<stop stop-opacity="0" style="stop-color:none;stop-opacity:0;"/>
<stop offset="1" stop-opacity="0.2" style="stop-color:black;stop-opacity:0.2;"/>
</linearGradient>
<linearGradient id="paint1_linear_7_3" x1="512" y1="100" x2="512" y2="924" gradientUnits="userSpaceOnUse">
<stop stop-opacity="0" style="stop-color:none;stop-opacity:0;"/>
<stop offset="1" stop-opacity="0.2" style="stop-color:black;stop-opacity:0.2;"/>
</linearGradient>
<linearGradient id="paint2_linear_7_3" x1="930" y1="117.5" x2="445" y2="1044" gradientUnits="userSpaceOnUse">
<stop offset="0.0296386" stop-color="#FFBA53" style="stop-color:#FFBA53;stop-color:color(display-p3 0.9986 0.7297 0.3264);stop-opacity:1;"/>
<stop offset="0.972541" stop-color="#F42525" style="stop-color:#F42525;stop-color:color(display-p3 0.9583 0.1437 0.1437);stop-opacity:1;"/>
</linearGradient>
<linearGradient id="paint3_linear_7_3" x1="694.694" y1="343.543" x2="439.391" y2="687.012" gradientUnits="userSpaceOnUse">
<stop stop-color="white" stop-opacity="0.4" style="stop-color:white;stop-opacity:0.4;"/>
<stop offset="1" stop-color="white" stop-opacity="0.9" style="stop-color:white;stop-opacity:0.9;"/>
</linearGradient>
<linearGradient id="paint4_linear_7_3" x1="694.694" y1="343.543" x2="439.391" y2="687.012" gradientUnits="userSpaceOnUse">
<stop stop-color="white" stop-opacity="0.4" style="stop-color:white;stop-opacity:0.4;"/>
<stop offset="1" stop-color="white" stop-opacity="0.9" style="stop-color:white;stop-opacity:0.9;"/>
</linearGradient>
</defs>
</svg>
